<?xml version="1.0" encoding="UTF-8"?>
<svg xmlns="http://www.w3.org/2000/svg" viewBox="0 0 790 792" width="790" height="792">
<path d="M378.28 35.16C378.28 57.02 378.28 78.88 378.28 100.74C362.22 104.25 346 106.2 330.53 112.19C298.29 124.66 270.12 144.58 247.33 170.61C242.3 166.53 238.17 160.67 233.52 156.06C225.19 147.79 216.22 140.03 207.06 132.71C199.66 126.78 191.62 121.47 183.65 116.34C180.04 114.02 174.6 111.88 171.97 108.68C180.37 100.04 195.22 91.76 205.7 85.45C235.48 67.53 268.1 53.59 301.69 45.09C308.68 43.32 315.82 42.31 322.85 40.79C334.54 38.26 346.56 36.77 358.53 35.88C365.01 35.4 371.8 34.01 378.28 35.16ZM616.64 108.68C614.17 111.56 609.8 113.15 606.6 115.22C600.2 119.34 593.83 123.59 587.7 128.12C580.29 133.59 573.16 139.54 566.17 145.54C559.85 150.97 554.3 157.55 547.73 162.62C522.26 134.36 485.6 114.42 448.76 106.24C441.1 104.54 433.22 103.09 425.41 102.18C420.28 101.58 415.05 101.6 409.96 100.74C409.96 78.83 409.96 56.93 409.96 35.02C414.88 34.78 419.4 35.59 424.25 35.9C437.2 36.71 450.19 37.99 462.82 40.79C470.08 42.41 477.48 43.25 484.69 45.09C528.77 56.36 581.44 78.99 616.64 108.68ZM641.6 127.98C646.21 131.12 650.3 135.74 654.24 139.7C662.71 148.22 670.79 156.82 678.55 165.97C713.14 206.79 736.95 257.58 749.15 309.26C752.87 325.03 755.37 340.7 757.14 356.83C757.81 363.01 759.13 369.64 758.59 375.84C684.06 375.84 609.53 375.84 535.01 375.84C536.11 372.13 545.49 362.85 548.48 358.92C556.21 348.75 563.57 337.45 568.63 325.7C582.41 293.73 587.05 258.6 578.82 224.42C576.9 216.44 574.36 208.12 570.83 200.68C568.72 196.22 565.99 191.9 564.08 187.39C581.16 168.66 602.57 151.78 624.1 138.49C629.88 134.92 635.97 131.8 641.6 127.98ZM147.67 128.47C175.36 142.09 210.93 170.37 230.94 193.89C229.94 197.19 227.71 200.26 226.16 203.39C223.18 209.44 220.38 215.76 218.22 222.13C212.5 238.95 209.78 255.71 207.83 273.32C206.7 283.47 203.79 299.06 214.94 304.67C219.44 306.93 225.06 306.16 230 306.17C239.86 306.19 249.73 306.19 259.6 306.22C263.88 306.23 270.18 305.27 273.93 307.26C275.39 321.98 276.47 336.53 277.3 351.31C277.75 359.37 278.83 367.82 277.73 375.83C195.53 375.83 113.32 375.83 31.12 375.83C29.44 371.15 32.08 360.46 32.85 355.34C35.13 340.22 36.99 325.38 40.77 310.53C54.62 256.11 75.42 211.53 110.77 167.44C118.46 157.85 126.69 148.78 135.37 140.04C139.14 136.26 143.04 131.13 147.67 128.47ZM410.53 319.26C408.35 312.59 409.95 300.24 409.95 292.82C409.96 280.06 409.94 267.31 409.95 254.55C409.96 248.03 409.02 240.66 410.43 234.33C435 237.87 442.83 266.85 435.81 287.48C431.25 300.88 420.73 310.15 410.53 319.26ZM378.14 235.05C379.26 237.31 378.28 246.88 378.26 250.21C378.19 262.49 378.26 274.77 378.28 287.04C378.31 301.73 378.25 316.41 378.29 331.09C378.3 336.84 379.72 346.65 378.23 351.94C377.33 355.14 371.81 358.72 369.65 361.32C366.69 364.89 363.63 368.34 360.73 371.96C359.78 373.15 358.93 375.28 357.4 375.79C354.14 376.91 346.42 375.84 342.65 375.84C334.46 375.84 326.28 375.84 318.09 375.8C314.58 375.79 310.68 376.3 307.26 375.63C306.31 367.98 307 359.77 306.95 352.03C306.85 338.55 306.22 320.43 304.11 307.26C316.28 304.91 336.81 312.14 345.46 301.05C350.27 294.88 347.97 285.78 349.13 278.63C351.68 262.94 360.77 239.65 378.14 235.05ZM279.82 406.93C280.29 412.84 278.94 419.14 278.18 424.99C276.29 439.74 273.77 453.96 270.24 468.39C256.76 523.57 227.42 574.08 186.31 613.47C175.53 623.81 163.89 633.18 151.46 641.42C146.98 644.39 142.45 648.06 137.52 650.27C133.37 647.6 130.04 642.81 126.55 639.26C116.39 628.92 107.25 617.41 98.83 605.62C68.58 563.26 48.88 518.93 37.78 468.24C34.85 454.88 33.22 441.48 31.8 427.86C31.13 421.43 29.29 413.16 30.68 406.93C113.73 406.93 196.78 406.93 279.82 406.93ZM339.04 407.49C337.05 415.56 333.58 423.18 332.18 431.48C329.45 447.68 329.85 464.15 329.8 480.57C329.78 490.37 327.44 503.42 337.19 509.5C346.47 515.29 367.03 510.85 378.31 512.44C378.31 517.7 378.31 522.97 378.31 528.23C374.53 529.86 370.46 530.73 366.63 532.37C355.86 537.01 345.68 544.67 338.1 553.65C311.94 584.67 315.67 633.44 346.4 659.92C356.17 668.34 366.54 670.91 378.3 674.82C378.3 701.78 378.3 728.74 378.3 755.7C373.03 757.25 366.85 755.79 361.42 755.33C348.23 754.21 335.41 752.6 322.42 750.32C278.64 742.61 235.58 725.03 198.36 700.3C187.06 692.8 167.76 680.45 159.12 670.49C175.93 658.7 192.91 647.87 207.92 633.61C268.57 575.94 307.61 491.09 307.98 407.49C310.49 406.28 313.78 406.88 316.65 406.9C321.99 406.92 334.66 405.34 339.04 407.49ZM758.59 406.93C759.66 411.82 758.39 416.45 758.12 421.36C757.23 437.29 754.41 452.82 751.2 468.35C740.19 521.58 717.49 570.77 684.64 614.25C678.64 622.2 672.42 629.79 665.62 637.09C661.52 641.48 657.98 646.56 653.16 650.21C646.22 647.67 639.58 642.66 633.53 638.44C620.6 629.45 608.45 619.43 597.43 608.16C556.34 566.14 529.77 517.63 516.8 460.48C513.86 447.49 512.11 434.42 510.87 421.14C510.42 416.32 509.65 411.8 510.18 406.93C592.98 406.93 675.78 406.93 758.59 406.93ZM480.57 416.9C481.34 419.49 480.93 422.25 481.15 424.96C481.64 430.93 482.29 437.1 483.13 443.02C485.52 459.67 489.34 476.44 494.31 492.53C510.02 543.41 538.71 591.39 576.52 629.07C592.26 644.76 609.74 660.44 629.74 670.49C626.92 674.51 622.11 677.72 618.25 680.72C610.35 686.84 602.67 693.19 594.24 698.6C555.29 723.66 512.52 742.46 466.86 750.32C453.38 752.64 440.13 754.24 426.41 755.31C420.99 755.73 415.28 757.02 409.95 755.7C409.95 728.61 409.95 701.53 409.95 674.44C419 673.46 427.66 669.41 435.25 664.49C466.36 644.31 477.07 602.32 461.67 569.13C455.74 556.36 446.09 546.96 434.67 539.1C427.47 534.15 418.63 530.14 409.98 528.78C409.98 523.3 409.98 517.82 409.98 512.34C418.66 511.48 427.77 512.21 436.52 512.13C441.82 512.08 447.12 512.39 451.55 508.98C461.44 501.37 458.17 483.83 458.67 472.63C459.6 451.88 463.63 430.9 480.57 416.9Z" fill="#d86523" fill-rule="evenodd" stroke="#d86523" stroke-width="0.25" stroke-linejoin="round"/>
<path d="M789.88 368.91C789.88 386 789.88 403.09 789.88 420.18C788.46 423.01 789.18 426.68 788.94 429.87C788.52 435.41 787.59 441.07 786.91 446.6C784.94 462.43 780.73 483.86 775.91 499.06C760.65 547.13 740.87 591.17 710.06 631.66C703.77 639.93 697.53 648.5 690.42 656.12C641.16 708.91 589.46 743.88 521.52 768C482.24 781.95 440.01 787.03 398.25 787.18C368.27 787.29 337.92 785.48 308.81 778.98C257.38 767.48 206.7 746.26 164.01 714.49C151.09 704.87 139.01 694.35 126.95 683.63C112.65 670.92 99.11 656.74 87.31 641.66C53.48 598.42 29.9 552 14.11 499.73C9.03 482.94 5.63 465.33 3.15 447.99C2.3 442.04 1.48 435.84 1.06 429.86C0.82 426.5 1.54 422.73 0.12 419.63C0.12 404.16 0.12 388.7 0.12 373.24C1.37 369.54 0.65 365.56 1.09 361.73C1.76 355.87 2.41 350 3.11 344.12C4.8 329.87 7.83 315.56 11.12 301.64C23.14 250.86 47.28 200.7 79.43 159.27C158.31 57.64 283.66 -5.19 412.97 3.97C424.35 4.78 435.53 5.18 446.76 6.92C480 12.07 513.17 19.14 544.44 32.2C601.52 56.04 644.6 86.67 687.99 130.53C694.11 136.71 699.43 143.72 704.93 150.42C739.98 193.11 765.92 245.31 778.88 298.76C781.48 309.45 783.29 320.2 785.15 331.05C785.69 334.14 786.68 337.34 786.96 340.48C787.47 346.32 788.42 352.15 788.95 357.95C789.28 361.57 788.6 365.46 789.88 368.91ZM378.28 35.16C371.8 34.01 365.01 35.4 358.53 35.88C346.56 36.77 334.54 38.26 322.85 40.79C315.82 42.31 308.68 43.32 301.69 45.09C268.1 53.59 235.48 67.53 205.7 85.45C195.22 91.76 180.37 100.04 171.97 108.68C174.6 111.88 180.04 114.02 183.65 116.34C191.62 121.47 199.66 126.78 207.06 132.71C216.22 140.03 225.19 147.79 233.52 156.06C238.17 160.67 242.3 166.53 247.33 170.61C270.12 144.58 298.29 124.66 330.53 112.19C346 106.2 362.22 104.25 378.28 100.74C378.28 78.88 378.28 57.02 378.28 35.16ZM616.64 108.68C581.44 78.99 528.77 56.36 484.69 45.09C477.48 43.25 470.08 42.41 462.82 40.79C450.19 37.99 437.2 36.71 424.25 35.9C419.4 35.59 414.88 34.78 409.96 35.02C409.96 56.93 409.96 78.83 409.96 100.74C415.05 101.6 420.28 101.58 425.41 102.18C433.22 103.09 441.1 104.54 448.76 106.24C485.6 114.42 522.26 134.36 547.73 162.62C554.3 157.55 559.85 150.97 566.17 145.54C573.16 139.54 580.29 133.59 587.7 128.12C593.83 123.59 600.2 119.34 606.6 115.22C609.8 113.15 614.17 111.56 616.64 108.68ZM356.15 484.54C356.13 485.63 356.11 486.71 356.09 487.79C381.08 487.79 406.06 487.79 431.05 487.79C431.05 486.71 431.06 485.63 431.06 484.54C432.82 463.12 431.25 443.83 442.19 424.45C450.59 409.57 465.04 398.56 478.58 388.66C491.06 379.53 503.19 369.5 514.39 358.8C554.04 320.89 567.06 261.17 545.81 210.61C531.56 176.69 499.47 152.08 465.55 139.91C431.39 127.64 389.13 122.75 353.7 133.22C299.53 149.22 256.37 188.55 240.91 243.55C237.8 254.63 235.02 266.77 235.05 278.41C263.21 278.6 291.38 278.78 319.54 278.97C320.95 272.15 320.99 265.12 323.13 258.4C329.19 239.34 342.37 224.04 359.57 214.11C370.03 208.07 382.02 205.98 393.92 205.97C432.58 205.96 463.95 228.22 465.96 268.99C467.72 304.67 439.76 329.17 415.23 350.6C407.47 357.38 400.2 365.04 393.18 372.58C375.01 392.09 362.19 415.28 357.16 441.4C354.79 453.72 355.35 471.86 356.15 484.54ZM641.6 127.98C635.97 131.8 629.88 134.92 624.1 138.49C602.57 151.78 581.16 168.66 564.08 187.39C565.99 191.9 568.72 196.22 570.83 200.68C574.36 208.12 576.9 216.44 578.82 224.42C587.05 258.6 582.41 293.73 568.63 325.7C563.57 337.45 556.21 348.75 548.48 358.92C545.49 362.85 536.11 372.13 535.01 375.84C609.53 375.84 684.06 375.84 758.59 375.84C759.13 369.64 757.81 363.01 757.14 356.83C755.37 340.7 752.87 325.03 749.15 309.26C736.95 257.58 713.14 206.79 678.55 165.97C670.79 156.82 662.71 148.22 654.24 139.7C650.3 135.74 646.21 131.12 641.6 127.98ZM147.67 128.47C143.04 131.13 139.14 136.26 135.37 140.04C126.69 148.78 118.46 157.85 110.77 167.44C75.42 211.53 54.62 256.11 40.77 310.53C36.99 325.38 35.13 340.22 32.85 355.34C32.08 360.46 29.44 371.15 31.12 375.83C113.32 375.83 195.53 375.83 277.73 375.83C278.83 367.82 277.75 359.37 277.3 351.31C276.47 336.53 275.39 321.98 273.93 307.26C270.18 305.27 263.88 306.23 259.6 306.22C249.73 306.19 239.86 306.19 230 306.17C225.06 306.16 219.44 306.93 214.94 304.67C203.79 299.06 206.7 283.47 207.83 273.32C209.78 255.71 212.5 238.95 218.22 222.13C220.38 215.76 223.18 209.44 226.16 203.39C227.71 200.26 229.94 197.19 230.94 193.89C210.93 170.37 175.36 142.09 147.67 128.47ZM410.53 319.26C420.73 310.15 431.25 300.88 435.81 287.48C442.83 266.85 435 237.87 410.43 234.33C409.02 240.66 409.96 248.03 409.95 254.55C409.94 267.31 409.96 280.06 409.95 292.82C409.95 300.24 408.35 312.59 410.53 319.26ZM378.14 235.05C360.77 239.65 351.68 262.94 349.13 278.63C347.97 285.78 350.27 294.88 345.46 301.05C336.81 312.14 316.28 304.91 304.11 307.26C306.22 320.43 306.85 338.55 306.95 352.03C307 359.77 306.31 367.98 307.26 375.63C310.68 376.3 314.58 375.79 318.09 375.8C326.28 375.84 334.46 375.84 342.65 375.84C346.42 375.84 354.14 376.91 357.4 375.79C358.93 375.28 359.78 373.15 360.73 371.96C363.63 368.34 366.69 364.89 369.65 361.32C371.81 358.72 377.33 355.14 378.23 351.94C379.72 346.65 378.3 336.84 378.29 331.09C378.25 316.41 378.31 301.73 378.28 287.04C378.26 274.77 378.19 262.49 378.26 250.21C378.28 246.88 379.26 237.31 378.14 235.05ZM279.82 406.93C196.78 406.93 113.73 406.93 30.68 406.93C29.29 413.16 31.13 421.43 31.8 427.86C33.22 441.48 34.85 454.88 37.78 468.24C48.88 518.93 68.58 563.26 98.83 605.62C107.25 617.41 116.39 628.92 126.55 639.26C130.04 642.81 133.37 647.6 137.52 650.27C142.45 648.06 146.98 644.39 151.46 641.42C163.89 633.18 175.53 623.81 186.31 613.47C227.42 574.08 256.76 523.57 270.24 468.39C273.77 453.96 276.29 439.74 278.18 424.99C278.94 419.14 280.29 412.84 279.82 406.93ZM339.04 407.49C334.66 405.34 321.99 406.92 316.65 406.9C313.78 406.88 310.49 406.28 307.98 407.49C307.61 491.09 268.57 575.94 207.92 633.61C192.91 647.87 175.93 658.7 159.12 670.49C167.76 680.45 187.06 692.8 198.36 700.3C235.58 725.03 278.64 742.61 322.42 750.32C335.41 752.6 348.23 754.21 361.42 755.33C366.85 755.79 373.03 757.25 378.3 755.7C378.3 728.74 378.3 701.78 378.3 674.82C366.54 670.91 356.17 668.34 346.4 659.92C315.67 633.44 311.94 584.67 338.1 553.65C345.68 544.67 355.86 537.01 366.63 532.37C370.46 530.73 374.53 529.86 378.31 528.23C378.31 522.97 378.31 517.7 378.31 512.44C367.03 510.85 346.47 515.29 337.19 509.5C327.44 503.42 329.78 490.37 329.8 480.57C329.85 464.15 329.45 447.68 332.18 431.48C333.58 423.18 337.05 415.56 339.04 407.49ZM758.59 406.93C675.78 406.93 592.98 406.93 510.18 406.93C509.65 411.8 510.42 416.32 510.87 421.14C512.11 434.42 513.86 447.49 516.8 460.48C529.77 517.63 556.34 566.14 597.43 608.16C608.45 619.43 620.6 629.45 633.53 638.44C639.58 642.66 646.22 647.67 653.16 650.21C657.98 646.56 661.52 641.48 665.62 637.09C672.42 629.79 678.64 622.2 684.64 614.25C717.49 570.77 740.19 521.58 751.2 468.35C754.41 452.82 757.23 437.29 758.12 421.36C758.39 416.45 759.66 411.82 758.59 406.93ZM480.57 416.9C463.63 430.9 459.6 451.88 458.67 472.63C458.17 483.83 461.44 501.37 451.55 508.98C447.12 512.39 441.82 512.08 436.52 512.13C427.77 512.21 418.66 511.48 409.98 512.34C409.98 517.82 409.98 523.3 409.98 528.78C418.63 530.14 427.47 534.15 434.67 539.1C446.09 546.96 455.74 556.36 461.67 569.13C477.07 602.32 466.36 644.31 435.25 664.49C427.66 669.41 419 673.46 409.95 674.44C409.95 701.53 409.95 728.61 409.95 755.7C415.28 757.02 420.99 755.73 426.41 755.31C440.13 754.24 453.38 752.64 466.86 750.32C512.52 742.46 555.29 723.66 594.24 698.6C602.67 693.19 610.35 686.84 618.25 680.72C622.11 677.72 626.92 674.51 629.74 670.49C609.74 660.44 592.26 644.76 576.52 629.07C538.71 591.39 510.02 543.41 494.31 492.53C489.34 476.44 485.52 459.67 483.13 443.02C482.29 437.1 481.64 430.93 481.15 424.96C480.93 422.25 481.34 419.49 480.57 416.9ZM390.48 552.7C375.43 554.95 363.96 559.73 355.06 572.82C350.48 579.58 348.39 588.12 347.96 596.11C346.49 623.23 358.08 645.55 386.52 650.22C391.15 650.98 396.08 651.76 400.85 650.99C422.31 647.52 439.08 630.93 441.87 609.11C445.33 581.98 429.56 555.82 401.14 553.03C397.52 552.67 394.12 552.16 390.48 552.7Z" fill="#151413" fill-rule="evenodd" stroke="#151413" stroke-width="0.25" stroke-linejoin="round"/>
<path d="M431.06 484.54C406.09 484.54 381.12 484.54 356.15 484.54C355.35 471.86 354.79 453.72 357.16 441.4C362.19 415.28 375.01 392.09 393.18 372.58C400.2 365.04 407.47 357.38 415.23 350.6C439.76 329.17 467.72 304.67 465.96 268.99C463.95 228.22 432.58 205.96 393.92 205.97C382.02 205.98 370.03 208.07 359.57 214.11C342.37 224.04 329.19 239.34 323.13 258.4C320.99 265.12 320.95 272.15 319.54 278.97C291.38 278.78 263.21 278.6 235.05 278.41C235.02 266.77 237.8 254.63 240.91 243.55C256.37 188.55 299.53 149.22 353.7 133.22C389.13 122.75 431.39 127.64 465.55 139.91C499.47 152.08 531.56 176.69 545.81 210.61C567.06 261.17 554.04 320.89 514.39 358.8C503.19 369.5 491.06 379.53 478.58 388.66C465.04 398.56 450.59 409.57 442.19 424.45C431.25 443.83 432.82 463.12 431.06 484.54ZM390.48 552.7C394.12 552.16 397.52 552.67 401.14 553.03C429.56 555.82 445.33 581.98 441.87 609.11C439.08 630.93 422.31 647.52 400.85 650.99C396.08 651.76 391.15 650.98 386.52 650.22C358.08 645.55 346.49 623.23 347.96 596.11C348.39 588.12 350.48 579.58 355.06 572.82C363.96 559.73 375.43 554.95 390.48 552.7Z" fill="#ffffff" fill-rule="evenodd" stroke="#ffffff" stroke-width="0.25" stroke-linejoin="round"/>
</svg>